<svg width="14" height="16" viewBox="0 0 14 16" fill="none" xmlns="http://www.w3.org/2000/svg">
<path fill-rule="evenodd" clip-rule="evenodd" d="M6.57783 15.1998L7.14199 15.7646C7.06795 15.8392 6.97997 15.8984 6.88309 15.9388C6.78621 15.9792 6.68234 16 6.57743 16C6.47252 16 6.36865 15.9792 6.27177 15.9388C6.17489 15.8984 6.08691 15.8392 6.01287 15.7646L6.00809 15.759L5.99455 15.7454L5.94514 15.695C5.66425 15.4045 5.38798 15.1095 5.11644 14.8102C4.43467 14.0602 3.78185 13.2841 3.15942 12.4838C2.44864 11.5638 1.72193 10.5238 1.16973 9.49666C0.629476 8.48948 0.203171 7.39829 0.203171 6.39991C0.203171 2.76876 3.06539 0 6.57783 0C10.0903 0 12.9525 2.76876 12.9525 6.39991C12.9525 7.39829 12.5262 8.48948 11.9859 9.49586C11.4337 10.5246 10.7078 11.5638 9.99624 12.4838C9.1256 13.6035 8.19569 14.6754 7.21051 15.695L7.16111 15.7454L7.14756 15.759L7.14278 15.7638L6.57783 15.1998ZM6.57783 8.79987C7.21183 8.79987 7.81986 8.54702 8.26816 8.09694C8.71647 7.64686 8.96832 7.03642 8.96832 6.39991C8.96832 5.7634 8.71647 5.15296 8.26816 4.70288C7.81986 4.25279 7.21183 3.99994 6.57783 3.99994C5.94383 3.99994 5.3358 4.25279 4.88749 4.70288C4.43919 5.15296 4.18733 5.7634 4.18733 6.39991C4.18733 7.03642 4.43919 7.64686 4.88749 8.09694C5.3358 8.54702 5.94383 8.79987 6.57783 8.79987Z" fill="white"/>
</svg>
