<svg width="21" height="20" viewBox="0 0 21 20" fill="none" xmlns="http://www.w3.org/2000/svg">
<path fill-rule="evenodd" clip-rule="evenodd" d="M3.20319 6C3.20319 5.20435 3.51926 4.44129 4.08187 3.87868C4.64447 3.31607 5.40754 3 6.20318 3H16.2032C16.3889 3 16.5709 3.05171 16.7289 3.14935C16.8869 3.24698 17.0146 3.38668 17.0976 3.55279C17.1807 3.71889 17.2158 3.90484 17.1991 4.08981C17.1825 4.27477 17.1146 4.45143 17.0032 4.6L14.4532 8L17.0032 11.4C17.1143 11.5487 17.1819 11.7253 17.1984 11.9101C17.2149 12.095 17.1797 12.2808 17.0967 12.4468C17.0137 12.6127 16.8862 12.7524 16.7284 12.8501C16.5706 12.9478 16.3888 12.9997 16.2032 13H6.20318C6.07186 13 5.94183 13.0259 5.8205 13.0761C5.69918 13.1264 5.58894 13.2 5.49608 13.2929C5.40322 13.3858 5.32956 13.496 5.27931 13.6173C5.22905 13.7386 5.20319 13.8687 5.20319 14V17C5.20319 17.2652 5.09783 17.5196 4.91029 17.7071C4.72276 17.8946 4.4684 18 4.20319 18C3.93797 18 3.68362 17.8946 3.49608 17.7071C3.30854 17.5196 3.20319 17.2652 3.20319 17V6Z" fill="white"/>
</svg>
