<svg width="24" height="24" viewBox="0 0 24 24" fill="none" xmlns="http://www.w3.org/2000/svg">
<path d="M3.48611 2.24304H8.45833L10.9444 8.45832L7.83681 10.3229C9.16807 13.0222 11.3528 15.2069 14.0521 16.5382L15.9167 13.4305L22.1319 15.9167V20.8889C22.1319 21.5482 21.87 22.1806 21.4038 22.6468C20.9375 23.1131 20.3052 23.375 19.6458 23.375C14.797 23.0803 10.2237 21.0213 6.7887 17.5863C3.35373 14.1513 1.29467 9.57798 1 4.72915C1 4.0698 1.26193 3.43744 1.72816 2.97121C2.1944 2.50497 2.82675 2.24304 3.48611 2.24304Z" stroke="white" stroke-linecap="round" stroke-linejoin="round"/>
<path d="M15.9167 5.97217C16.5761 5.97217 17.2085 6.2341 17.6747 6.70033C18.1409 7.16657 18.4029 7.79892 18.4029 8.45828" stroke="white" stroke-linecap="round" stroke-linejoin="round"/>
<path d="M15.9167 1C17.8948 1 19.7919 1.78579 21.1906 3.1845C22.5893 4.58321 23.3751 6.48026 23.3751 8.45834" stroke="white" stroke-linecap="round" stroke-linejoin="round"/>
</svg>
