<svg width="23" height="22" viewBox="0 0 23 22" fill="none" xmlns="http://www.w3.org/2000/svg">
<path d="M5.28391 7.14947L5.28391 7.14947C4.90346 7.18642 4.61179 7.26569 4.37971 7.39532C4.15444 7.52114 3.9585 7.70925 3.79029 8.00956L3.79029 8.00956C3.44863 8.61949 3.23456 9.77063 3.45626 11.7841L3.45626 11.7841C3.73785 14.3419 5.79829 15.5184 7.42305 14.9448L7.42306 14.9448C7.45181 14.9347 7.52345 14.8977 7.64248 14.8055C7.75525 14.7182 7.88646 14.6004 8.03273 14.4566C8.32537 14.1689 8.65159 13.8034 8.97459 13.4295L8.9746 13.4295C9.2957 13.0578 9.63972 12.6636 9.99356 12.349L9.99369 12.3489C10.324 12.0555 10.7793 11.6964 11.3897 11.6964C12.0006 11.6964 12.4548 12.0559 12.7846 12.349C13.1386 12.6636 13.4826 13.0578 13.8037 13.4295L13.8037 13.4295C14.1267 13.8034 14.4529 14.1689 14.7456 14.4566C14.8918 14.6005 15.0231 14.7182 15.1358 14.8056C15.2549 14.8977 15.3265 14.9347 15.3553 14.9449C16.9735 15.5161 19.0018 14.3435 19.3241 11.771C19.5767 9.75392 19.3679 8.60701 19.0269 8.00174L19.0269 8.0017C18.8592 7.70405 18.6606 7.51565 18.4291 7.38886C18.1904 7.25811 17.8899 7.17839 17.5005 7.14181L5.28391 7.14947ZM5.28391 7.14947C6.04469 7.07558 6.99987 7.23143 8.08862 7.42724C8.15543 7.43926 8.22267 7.45141 8.29032 7.46363C9.29185 7.6446 10.38 7.84122 11.3897 7.84122C12.3467 7.84122 13.3902 7.65444 14.3626 7.47784L14.4152 7.46828C15.3792 7.29315 16.2672 7.13183 17.0306 7.12392L17.0584 7.12377C17.1098 7.1235 17.1585 7.12369 17.2047 7.12479L17.2054 7.1248M5.28391 7.14947L17.2054 7.1248M17.2054 7.1248C17.3065 7.12706 17.405 7.13285 17.5005 7.14181L17.2054 7.1248ZM10.1419 9.78599L9.8503 10.1533C8.05565 12.414 5.28883 11.7117 4.34191 10.0952L4.14534 9.75963L4.42219 9.48652C5.2403 8.67946 6.11421 8.24293 7.03845 8.23474L10.1419 9.78599ZM10.1419 9.78599L9.79394 9.47151M10.1419 9.78599L9.79394 9.47151M9.79394 9.47151C8.93695 8.69705 8.01573 8.22602 7.0385 8.23474L9.79394 9.47151ZM17.2166 6.62525L17.2166 6.62493L17.2166 6.62525ZM15.561 8.23468C15.5388 8.23445 15.5075 8.23412 15.4755 8.23485L15.5622 8.73472L15.5672 8.23475L15.5666 8.23474L15.561 8.23468Z" fill="white" stroke="white"/>
</svg>
