<svg width="13" height="17" viewBox="0 0 13 17" fill="none" xmlns="http://www.w3.org/2000/svg">
<path d="M6.86046 15.8033L6.2614 16.3783L6.22139 16.3358C6.22098 16.3354 6.22058 16.3349 6.22018 16.3345C5.93778 16.0301 5.66001 15.7211 5.38698 15.4075L5.38666 15.4071C4.70005 14.6201 4.04254 13.8057 3.4156 12.9657C2.6994 11.9997 1.97576 10.919 1.42991 9.86096C0.889937 8.81192 0.5 7.7393 0.5 6.7999C0.5 3.20191 3.21041 0.5 6.5 0.5C9.78959 0.5 12.5 3.20191 12.5 6.7999C12.5 7.73941 12.11 8.81218 11.57 9.86036L11.5699 9.86039C11.0242 10.9199 10.3015 11.9996 9.58467 12.9653C8.79351 14.0255 7.95383 15.0449 7.06861 16.0198L6.86094 15.8038L6.86046 15.8033ZM6.5 9.84986C7.28654 9.84986 8.03604 9.52279 8.58501 8.94849C9.13324 8.37496 9.4375 7.60171 9.4375 6.7999C9.4375 5.9981 9.13324 5.22484 8.58501 4.65131C8.03604 4.07701 7.28654 3.74994 6.5 3.74994C5.71346 3.74994 4.96396 4.07701 4.41499 4.65131C3.86676 5.22484 3.5625 5.9981 3.5625 6.7999C3.5625 7.60171 3.86676 8.37496 4.41499 8.94849C4.96396 9.52279 5.71346 9.84986 6.5 9.84986Z" stroke="white"/>
</svg>
