<svg width="24" height="24" viewBox="0 0 24 24" fill="none" xmlns="http://www.w3.org/2000/svg">
<path d="M10.2634 14.0481L22.7896 1.52197" stroke="white" stroke-linecap="round" stroke-linejoin="round"/>
<path d="M23.3115 1L15.3957 22.9208C15.3423 23.0373 15.2565 23.1362 15.1485 23.2054C15.0406 23.2747 14.915 23.3115 14.7868 23.3115C14.6585 23.3115 14.533 23.2747 14.425 23.2054C14.3171 23.1362 14.2313 23.0373 14.1779 22.9208L9.9155 14.396L1.39076 10.1336C1.27417 10.0802 1.17536 9.99443 1.10609 9.88649C1.03682 9.77855 1 9.65299 1 9.52474C1 9.39648 1.03682 9.27092 1.10609 9.16298C1.17536 9.05504 1.27417 8.96926 1.39076 8.91583L23.3115 1Z" stroke="white" stroke-linecap="round" stroke-linejoin="round"/>
</svg>
