<svg width="23" height="22" viewBox="0 0 23 22" fill="none" xmlns="http://www.w3.org/2000/svg">
<path d="M9.35775 15.5833H13.6413M11.5 2.75V3.66667M17.3337 5.16633L16.6856 5.81442M19.75 11H18.8333M4.16667 11H3.25M6.31442 5.81442L5.66633 5.16633M8.25867 14.2413C7.6178 13.6003 7.1814 12.7836 7.00465 11.8946C6.82789 11.0055 6.91873 10.084 7.26567 9.24661C7.6126 8.40919 8.20006 7.69344 8.95376 7.18987C9.70746 6.6863 10.5936 6.41752 11.5 6.41752C12.4064 6.41752 13.2925 6.6863 14.0462 7.18987C14.7999 7.69344 15.3874 8.40919 15.7343 9.24661C16.0813 10.084 16.1721 11.0055 15.9954 11.8946C15.8186 12.7836 15.3822 13.6003 14.7413 14.2413L14.239 14.7428C13.9518 15.03 13.724 15.3709 13.5686 15.7462C13.4132 16.1215 13.3332 16.5237 13.3333 16.9299V17.4167C13.3333 17.9029 13.1402 18.3692 12.7964 18.713C12.4525 19.0568 11.9862 19.25 11.5 19.25C11.0138 19.25 10.5475 19.0568 10.2036 18.713C9.85982 18.3692 9.66667 17.9029 9.66667 17.4167V16.9299C9.66667 16.1095 9.34033 15.3221 8.761 14.7428L8.25867 14.2413Z" stroke="white" stroke-linecap="round" stroke-linejoin="round"/>
</svg>
