<svg width="66" height="66" viewBox="0 0 66 66" fill="none" xmlns="http://www.w3.org/2000/svg">
<circle cx="33" cy="33" r="33" fill="#FEFEFE" fill-opacity="0.2"/>
<g filter="url(#filter0_d_659_6841)">
<circle cx="33" cy="33" r="24" fill="#D9D9D9"/>
<rect x="7" y="7" width="51.5" height="51.5" rx="25.75" fill="#FF6B6B"/>
<path d="M33 33V7C25.8403 7 19.3585 9.96159 14.6666 14.6667L33 33Z" fill="#4ECDC4"/>
<path d="M33 33H7C7 25.8403 9.96159 19.3585 14.6667 14.6666L33 33Z" fill="#4ECDC4"/>
<path d="M33 33H7C7 40.1597 9.96159 46.6415 14.6667 51.3334L33 33Z" fill="#FFE66D"/>
<path d="M33 33V59C25.8403 59 19.3585 56.0384 14.6666 51.3333L33 33Z" fill="#FFE66D"/>
<path d="M33 33V59C40.1597 59 46.6415 56.0384 51.3334 51.3333L33 33Z" fill="#FFE66D"/>
<path d="M33 33V7C40.1597 7 46.6415 9.96159 51.3334 14.6667L33 33Z" fill="#FF6B6B"/>
</g>
<circle cx="33" cy="32.95" r="24" fill="black"/>
<path d="M24.25 41.329V38.0537V38.0532H25C24.9985 36.9464 25.2247 35.8542 25.6613 34.8444L24.25 41.329ZM24.25 41.329H21.75L21.75 38.0532L21.75 38.0529C21.7498 37.5521 21.8636 37.058 22.0823 36.6087C22.3011 36.1593 22.6189 35.7668 23.0112 35.4609C23.4034 35.155 23.8596 34.9438 24.3448 34.8432C24.5206 34.8067 24.6985 34.7851 24.8767 34.7783L24.25 41.329ZM41.75 38.0542V41.329H44.25L44.25 38.0545C44.25 38.0542 44.25 38.0538 44.25 38.0535C44.249 37.5532 44.1345 37.0599 43.9154 36.6112C43.6963 36.1622 43.3784 35.77 42.9863 35.4642C42.5942 35.1585 42.1382 34.9471 41.6533 34.846C41.4785 34.8095 41.3015 34.7877 41.1242 34.7805C41.5379 35.8184 41.7516 36.9295 41.75 38.0542ZM41.75 38.0542L41 38.0532M36.002 27.2309L36.6955 27.5164L36.002 27.2309C35.8382 27.6287 35.5984 27.9898 35.2964 28.2938C34.9944 28.5978 34.6361 28.8386 34.2421 29.0029C33.8482 29.1671 33.4261 29.2516 33 29.2516C32.5739 29.2516 32.1518 29.1671 31.7579 29.0029C31.3639 28.8386 31.0056 28.5978 30.7036 28.2938C30.4016 27.9898 30.1618 27.6287 29.998 27.2309L29.3045 27.5164L29.998 27.2309C29.8343 26.8331 29.75 26.4066 29.75 25.9758C29.75 25.1054 30.0936 24.2717 30.7036 23.6577C31.3135 23.0439 32.1396 22.7 33 22.7C33.8604 22.7 34.6865 23.0439 35.2964 23.6577C35.9064 24.2717 36.25 25.1054 36.25 25.9758C36.25 26.4066 36.1657 26.8331 36.002 27.2309ZM42.9167 28.6596C42.9167 29.1741 42.7136 29.6665 42.3536 30.0288C41.9938 30.3909 41.5068 30.5935 41 30.5935C40.4932 30.5935 40.0062 30.3909 39.6464 30.0288C39.2864 29.6665 39.0833 29.1741 39.0833 28.6596C39.0833 28.1452 39.2864 27.6528 39.6464 27.2905C40.0062 26.9283 40.4932 26.7258 41 26.7258C41.5068 26.7258 41.9938 26.9283 42.3536 27.2905C42.7136 27.6528 42.9167 28.1452 42.9167 28.6596ZM36.2392 34.7862C37.0993 35.6519 37.5833 36.8269 37.5833 38.0532V41.329H28.4167V38.0532C28.4167 36.8269 28.9007 35.6519 29.7608 34.7862C30.6207 33.9208 31.786 33.4354 33 33.4354C34.214 33.4354 35.3793 33.9208 36.2392 34.7862ZM26.9167 28.6596C26.9167 28.9143 26.8668 29.1663 26.7701 29.4013C26.6734 29.6362 26.5318 29.8494 26.3536 30.0288C26.1754 30.2081 25.9641 30.3502 25.7319 30.447C25.4997 30.5437 25.251 30.5935 25 30.5935C24.749 30.5935 24.5003 30.5437 24.2681 30.447C24.0359 30.3502 23.8246 30.2081 23.6464 30.0288C23.4682 29.8494 23.3266 29.6362 23.2299 29.4013C23.1332 29.1663 23.0833 28.9143 23.0833 28.6596C23.0833 28.1452 23.2864 27.6528 23.6464 27.2905C24.0062 26.9283 24.4932 26.7258 25 26.7258C25.5068 26.7258 25.9938 26.9283 26.3536 27.2905C26.7136 27.6528 26.9167 28.1452 26.9167 28.6596Z" stroke="white" stroke-width="1.5"/>
<defs>
<filter id="filter0_d_659_6841" x="3" y="5" width="60" height="60" filterUnits="userSpaceOnUse" color-interpolation-filters="sRGB">
<feFlood flood-opacity="0" result="BackgroundImageFix"/>
<feColorMatrix in="SourceAlpha" type="matrix" values="0 0 0 0 0 0 0 0 0 0 0 0 0 0 0 0 0 0 127 0" result="hardAlpha"/>
<feOffset dy="2"/>
<feGaussianBlur stdDeviation="2"/>
<feComposite in2="hardAlpha" operator="out"/>
<feColorMatrix type="matrix" values="0 0 0 0 0 0 0 0 0 0 0 0 0 0 0 0 0 0 0.25 0"/>
<feBlend mode="normal" in2="BackgroundImageFix" result="effect1_dropShadow_659_6841"/>
<feBlend mode="normal" in="SourceGraphic" in2="effect1_dropShadow_659_6841" result="shape"/>
</filter>
</defs>
</svg>
