<svg width="25" height="25" viewBox="0 0 25 25" fill="none" xmlns="http://www.w3.org/2000/svg">
<path fill-rule="evenodd" clip-rule="evenodd" d="M10.7552 4.49687C11.199 2.66771 13.801 2.66771 14.2448 4.49687C14.3114 4.77167 14.4419 5.02685 14.6257 5.24167C14.8096 5.45648 15.0415 5.62485 15.3028 5.73307C15.564 5.84129 15.847 5.8863 16.1289 5.86445C16.4108 5.84259 16.6836 5.75448 16.925 5.60729C18.5323 4.62812 20.3729 6.46771 19.3937 8.07604C19.2468 8.31735 19.1588 8.58993 19.137 8.87164C19.1152 9.15334 19.1602 9.43622 19.2683 9.69727C19.3764 9.95832 19.5445 10.1902 19.7591 10.374C19.9737 10.5578 20.2286 10.6884 20.5031 10.7552C22.3323 11.199 22.3323 13.801 20.5031 14.2448C20.2285 14.3116 19.9734 14.4422 19.7587 14.6261C19.5441 14.81 19.3758 15.0419 19.2676 15.303C19.1594 15.5642 19.1144 15.8472 19.1361 16.129C19.1578 16.4108 19.2458 16.6835 19.3927 16.925C20.3719 18.5323 18.5323 20.3729 16.924 19.3937C16.6826 19.247 16.41 19.1592 16.1284 19.1375C15.8468 19.1158 15.564 19.1609 15.303 19.2689C15.042 19.377 14.8102 19.5451 14.6263 19.7595C14.4425 19.9739 14.3118 20.2287 14.2448 20.5031C13.801 22.3323 11.199 22.3323 10.7552 20.5031C10.6886 20.2283 10.5581 19.9731 10.3743 19.7583C10.1904 19.5435 9.95845 19.3752 9.69724 19.2669C9.43603 19.1587 9.15295 19.1137 8.87106 19.1356C8.58916 19.1574 8.31641 19.2455 8.075 19.3927C6.46771 20.3719 4.62708 18.5323 5.60625 16.924C5.753 16.6826 5.84078 16.41 5.86247 16.1284C5.88415 15.8468 5.83914 15.564 5.73107 15.303C5.62301 15.042 5.45494 14.8102 5.2405 14.6263C5.02606 14.4425 4.77129 14.3118 4.49687 14.2448C2.66771 13.801 2.66771 11.199 4.49687 10.7552C4.77167 10.6886 5.02685 10.5581 5.24167 10.3743C5.45648 10.1904 5.62485 9.95845 5.73307 9.69724C5.84129 9.43603 5.8863 9.15295 5.86445 8.87106C5.84259 8.58916 5.75448 8.31641 5.60729 8.075C4.62812 6.46771 6.46771 4.62708 8.07604 5.60625C8.3173 5.75346 8.58991 5.84162 8.87168 5.86354C9.15346 5.88547 9.43642 5.84054 9.69755 5.73241C9.95867 5.62429 10.1906 5.45602 10.3744 5.24132C10.5582 5.02662 10.6886 4.77155 10.7552 4.49687ZM15.4236 13.6949C15.2557 14.0774 15.0129 14.4223 14.7094 14.7094L14.7104 14.7104C14.1211 15.2797 13.3317 15.5946 12.5123 15.5875C11.693 15.5804 10.9092 15.2517 10.3298 14.6723C9.75036 14.0929 9.42171 13.3092 9.41459 12.4898C9.40747 11.6704 9.72245 10.881 10.2917 10.2917C10.5787 9.98821 10.9237 9.74538 11.3062 9.57752C11.6886 9.40966 12.1009 9.32018 12.5185 9.31437C12.9362 9.30857 13.3508 9.38655 13.7378 9.5437C14.1248 9.70086 14.4764 9.93401 14.7717 10.2294C15.0671 10.5247 15.3002 10.8763 15.4574 11.2633C15.6145 11.6503 15.6925 12.0649 15.6867 12.4825C15.6809 12.9002 15.5914 13.3124 15.4236 13.6949Z" fill="white"/>
</svg>
