<svg width="35" height="35" viewBox="0 0 35 35" fill="none" xmlns="http://www.w3.org/2000/svg">
<path d="M17.6562 28.4375C18.9507 28.4375 20 27.3882 20 26.0938C20 24.7993 18.9507 23.75 17.6562 23.75C16.3618 23.75 15.3125 24.7993 15.3125 26.0938C15.3125 27.3882 16.3618 28.4375 17.6562 28.4375Z" fill="white"/>
<path d="M17.6562 6.5625C16.3901 6.5625 15.2321 7.04167 15.3169 7.60417L16.4866 21.6667C16.4866 21.8048 16.6098 21.9373 16.8292 22.035C17.0485 22.1326 17.346 22.1875 17.6562 22.1875C17.9665 22.1875 18.264 22.1326 18.4833 22.035C18.7027 21.9373 18.8259 21.8048 18.8259 21.6667L19.9956 7.60417C20.0804 7.04167 18.9224 6.5625 17.6562 6.5625Z" fill="white"/>
</svg>
