<svg width="23" height="24" viewBox="0 0 23 24" fill="none" xmlns="http://www.w3.org/2000/svg">
<path d="M17.9374 5.65196C18.6942 5.65196 19.3134 4.95661 19.3134 4.10674C19.3134 3.25687 18.6942 2.56152 17.9374 2.56152C17.1805 2.56152 16.5613 3.25687 16.5613 4.10674C16.5613 4.95661 17.1805 5.65196 17.9374 5.65196ZM15.3916 8.27883L13.6303 18.2532C13.5408 18.7245 13.8711 19.1726 14.3045 19.1726H14.3596C14.683 19.1726 14.9582 18.9254 15.0339 18.57L16.1485 12.9918L17.5933 14.537V18.4C17.5933 18.825 17.903 19.1726 18.2814 19.1726C18.6598 19.1726 18.9694 18.825 18.9694 18.4V14.0425C18.9694 13.6176 18.818 13.2158 18.5428 12.9222L17.5245 11.8328L17.9374 9.51501C18.7127 10.5104 19.7742 11.1692 20.9372 11.377C21.35 11.4465 21.7215 11.0757 21.7215 10.6044C21.7215 10.2258 21.4739 9.90904 21.1367 9.84723C20.0909 9.65408 19.224 8.95873 18.763 8.04705L18.075 6.81088C17.8892 6.47723 17.6037 6.22872 17.2696 6.10982C16.9356 5.99091 16.5747 6.00937 16.2517 6.16188L13.6165 7.41351C13.3672 7.53315 13.1548 7.73242 13.0055 7.98654C12.8563 8.24066 12.7769 8.53844 12.7771 8.84284V10.6739C12.7771 11.0989 13.0867 11.4465 13.4651 11.4465C13.8436 11.4465 14.1532 11.0989 14.1532 10.6739V8.81966L15.3916 8.27883Z" fill="white"/>
<path d="M11.5484 8.20738C12.3053 8.20738 12.9245 7.51203 12.9245 6.66216C12.9245 5.81229 12.3053 5.11694 11.5484 5.11694C10.7916 5.11694 10.1724 5.81229 10.1724 6.66216C10.1724 7.51203 10.7916 8.20738 11.5484 8.20738ZM9.00272 10.8343L7.24135 20.8086C7.1519 21.2799 7.48216 21.728 7.91562 21.728H7.97066C8.29404 21.728 8.56925 21.4808 8.64494 21.1254L9.75955 15.5472L11.2044 17.0924V20.9554C11.2044 21.3804 11.514 21.728 11.8925 21.728C12.2709 21.728 12.5805 21.3804 12.5805 20.9554V16.5979C12.5805 16.173 12.4291 15.7712 12.1539 15.4776L11.1356 14.3883L11.5484 12.0704C12.3238 13.0658 13.3852 13.7246 14.5483 13.9324C14.9611 14.002 15.3326 13.6311 15.3326 13.1598C15.3326 12.7812 15.0849 12.4645 14.7478 12.4027C13.702 12.2095 12.8351 11.5142 12.3741 10.6025L11.686 9.3663C11.5002 9.03265 11.2148 8.78414 10.8807 8.66524C10.5466 8.54633 10.1858 8.56479 9.86276 8.7173L7.22759 9.96893C6.97832 10.0886 6.76586 10.2878 6.61662 10.542C6.46739 10.7961 6.38795 11.0939 6.38818 11.3983V13.2293C6.38818 13.6543 6.6978 14.002 7.07622 14.002C7.45464 14.002 7.76425 13.6543 7.76425 13.2293V11.3751L9.00272 10.8343Z" fill="white"/>
<path d="M6.43736 4.37413C7.1942 4.37413 7.81343 3.67878 7.81343 2.82891C7.81343 1.97904 7.1942 1.28369 6.43736 1.28369C5.68052 1.28369 5.06129 1.97904 5.06129 2.82891C5.06129 3.67878 5.68052 4.37413 6.43736 4.37413ZM3.89163 7.001L2.13026 16.9754C2.04082 17.4467 2.37107 17.8948 2.80454 17.8948H2.85958C3.18296 17.8948 3.45817 17.6476 3.53385 17.2922L4.64847 11.7139L6.09334 13.2591V17.1222C6.09334 17.5471 6.40296 17.8948 6.78137 17.8948C7.15979 17.8948 7.46941 17.5471 7.46941 17.1222V12.7647C7.46941 12.3397 7.31804 11.938 7.04283 11.6444L6.02454 10.555L6.43736 8.23718C7.21272 9.23254 8.27415 9.89137 9.43719 10.0992C9.85001 10.1687 10.2215 9.79785 10.2215 9.32656C10.2215 8.94798 9.97385 8.63121 9.63672 8.5694C8.59091 8.37625 7.72398 7.6809 7.263 6.76922L6.57496 5.53304C6.38915 5.1994 6.10367 4.95089 5.76962 4.83198C5.43556 4.71308 5.07472 4.73153 4.75167 4.88405L2.1165 6.13568C1.86724 6.25532 1.65478 6.45459 1.50554 6.70871C1.3563 6.96283 1.27686 7.2606 1.2771 7.56501V9.39609C1.2771 9.82103 1.58672 10.1687 1.96513 10.1687C2.34355 10.1687 2.65317 9.82103 2.65317 9.39609V7.54183L3.89163 7.001Z" fill="white"/>
</svg>
