<svg width="283" height="65" viewBox="0 0 283 65" fill="none" xmlns="http://www.w3.org/2000/svg">
<g filter="url(#filter0_d_568_8388)">
<path d="M267.18 56.0002C268.2 56.0002 269.016 56.3062 269.628 56.9182C270.217 57.5302 270.512 58.3349 270.512 59.3322C270.512 60.3069 270.217 61.0889 269.628 61.6782C269.016 62.2902 268.2 62.5962 267.18 62.5962C266.115 62.5962 265.299 62.2902 264.732 61.6782C264.143 61.0889 263.848 60.3069 263.848 59.3322C263.848 58.3349 264.143 57.5302 264.732 56.9182C265.299 56.3062 266.115 56.0002 267.18 56.0002Z" fill="#FF6B6B"/>
<path d="M257.516 56.0002C258.536 56.0002 259.352 56.3062 259.964 56.9182C260.553 57.5302 260.848 58.3349 260.848 59.3322C260.848 60.3069 260.553 61.0889 259.964 61.6782C259.352 62.2902 258.536 62.5962 257.516 62.5962C256.451 62.5962 255.635 62.2902 255.068 61.6782C254.479 61.0889 254.184 60.3069 254.184 59.3322C254.184 58.3349 254.479 57.5302 255.068 56.9182C255.635 56.3062 256.451 56.0002 257.516 56.0002Z" fill="#FFE66D"/>
<path d="M247.852 56.0002C248.872 56.0002 249.688 56.3062 250.3 56.9182C250.889 57.5302 251.184 58.3349 251.184 59.3322C251.184 60.3069 250.889 61.0889 250.3 61.6782C249.688 62.2902 248.872 62.5962 247.852 62.5962C246.787 62.5962 245.971 62.2902 245.404 61.6782C244.815 61.0889 244.52 60.3069 244.52 59.3322C244.52 58.3349 244.815 57.5302 245.404 56.9182C245.971 56.3062 246.787 56.0002 247.852 56.0002Z" fill="#4ECDC4"/>
</g>
<g filter="url(#filter1_d_568_8388)">
<path d="M18.497 51.6064C16.5903 51.6064 14.6403 51.4547 12.647 51.1514C10.697 50.8914 8.92029 50.393 7.31695 49.6564C6.23362 49.223 5.45362 48.638 4.97695 47.9014C4.54362 47.1647 4.32695 46.3847 4.32695 45.5614C4.37029 44.738 4.60862 44.0014 5.04195 43.3514C5.51862 42.658 6.12529 42.1814 6.86195 41.9214C7.64195 41.618 8.50862 41.6397 9.46195 41.9864C11.282 42.6364 12.907 43.113 14.337 43.4164C15.8103 43.6764 17.2186 43.8064 18.562 43.8064C20.1653 43.8064 21.3136 43.5897 22.007 43.1564C22.7003 42.6797 23.047 42.073 23.047 41.3364C23.047 40.6864 22.8086 40.188 22.332 39.8414C21.8986 39.4947 21.2703 39.2564 20.447 39.1264L13.232 37.9564C10.5453 37.4797 8.46529 36.5047 6.99195 35.0314C5.51862 33.5147 4.78195 31.543 4.78195 29.1164C4.78195 26.863 5.41029 24.9347 6.66695 23.3314C7.96695 21.6847 9.72195 20.428 11.932 19.5614C14.1853 18.6514 16.7636 18.1964 19.667 18.1964C21.617 18.1964 23.3936 18.348 24.997 18.6514C26.6003 18.9114 28.1603 19.4097 29.677 20.1464C30.6303 20.5364 31.302 21.0997 31.692 21.8364C32.082 22.573 32.2336 23.353 32.147 24.1764C32.0603 24.9564 31.7786 25.693 31.302 26.3864C30.8686 27.0364 30.262 27.4914 29.482 27.7514C28.702 27.968 27.792 27.903 26.752 27.5564C25.322 26.993 24.0436 26.5814 22.917 26.3214C21.8336 26.0614 20.8153 25.9314 19.862 25.9314C18.0853 25.9314 16.8286 26.1697 16.092 26.6464C15.3553 27.123 14.987 27.7297 14.987 28.4664C14.987 29.0297 15.182 29.5064 15.572 29.8964C15.962 30.243 16.5686 30.4814 17.392 30.6114L24.607 31.8464C27.3803 32.2797 29.5036 33.233 30.977 34.7064C32.4936 36.1364 33.252 38.0864 33.252 40.5564C33.252 44.0664 31.9086 46.7964 29.222 48.7464C26.5353 50.653 22.9603 51.6064 18.497 51.6064Z" fill="white"/>
<path d="M52.5747 51.4764C51.1013 51.4764 49.823 51.1297 48.7397 50.4364C47.6563 49.6997 46.7897 48.573 46.1397 47.0564L37.2997 25.6714C36.7363 24.328 36.5413 23.1147 36.7147 22.0314C36.888 20.9047 37.408 20.0164 38.2747 19.3664C39.1847 18.673 40.4197 18.3264 41.9797 18.3264C43.323 18.3264 44.428 18.6514 45.2947 19.3014C46.1613 19.908 46.9413 21.1214 47.6347 22.9414L53.8747 39.3214H52.5097L59.0747 21.7064C59.508 20.5364 60.093 19.6914 60.8297 19.1714C61.6097 18.608 62.5847 18.3264 63.7547 18.3264C65.0113 18.3264 66.008 18.608 66.7447 19.1714C67.4813 19.7347 68.0663 20.5797 68.4997 21.7064L75.0647 39.3214H73.8947L80.1997 22.5514C80.8063 20.9047 81.5863 19.7997 82.5397 19.2364C83.493 18.6297 84.5113 18.3264 85.5947 18.3264C87.068 18.3264 88.1947 18.673 88.9747 19.3664C89.7547 20.0597 90.188 20.9697 90.2747 22.0964C90.4047 23.223 90.188 24.4364 89.6247 25.7364L80.8497 46.9914C80.243 48.508 79.398 49.6347 78.3147 50.3714C77.2313 51.108 75.953 51.4764 74.4797 51.4764C72.963 51.4764 71.663 51.108 70.5797 50.3714C69.5397 49.6347 68.6947 48.508 68.0447 46.9914L60.8947 29.1164H65.6397L58.8797 46.8614C58.273 48.4214 57.4497 49.5914 56.4097 50.3714C55.3697 51.108 54.0913 51.4764 52.5747 51.4764Z" fill="white"/>
<path fill-rule="evenodd" clip-rule="evenodd" d="M114.194 50.8364C116.701 52.2587 119.64 49.7847 118.55 47.1703L107.624 20.9703C106.578 18.4616 102.899 18.528 101.945 21.0728L92.0319 47.5202C91.0447 50.1541 94.0294 52.5177 96.4854 51.047L103.727 46.7102C104.684 46.1371 105.888 46.123 106.858 46.6734L114.194 50.8364ZM105.235 40.6118C107.824 40.6118 109.922 38.5785 109.922 36.0703C109.922 33.5621 107.824 31.5288 105.235 31.5288C102.646 31.5288 100.548 33.5621 100.548 36.0703C100.548 38.5785 102.646 40.6118 105.235 40.6118Z" fill="white"/>
<path d="M135.736 51.6064C131.576 51.6064 128.5 50.5014 126.506 48.2914C124.556 46.038 123.581 42.658 123.581 38.1514V10.3314C123.581 8.42469 124.08 6.97302 125.076 5.97635C126.073 4.97969 127.481 4.48135 129.301 4.48135C131.165 4.48135 132.595 4.97969 133.591 5.97635C134.631 6.97302 135.151 8.42469 135.151 10.3314V37.7614C135.151 39.3647 135.455 40.5347 136.061 41.2714C136.711 42.008 137.535 42.3764 138.531 42.3764C138.835 42.3764 139.138 42.3547 139.441 42.3114C139.788 42.2247 140.156 42.1597 140.546 42.1164C141.283 42.1164 141.825 42.398 142.171 42.9614C142.561 43.5247 142.756 44.673 142.756 46.4064C142.756 47.923 142.453 49.0714 141.846 49.8514C141.24 50.588 140.308 51.0647 139.051 51.2814C138.705 51.3247 138.206 51.3897 137.556 51.4764C136.906 51.563 136.3 51.6064 135.736 51.6064Z" fill="white"/>
<path d="M152.247 51.4764C150.427 51.4764 149.019 50.978 148.022 49.9814C147.026 48.9847 146.527 47.533 146.527 45.6264V10.3314C146.527 8.42469 147.026 6.97302 148.022 5.97635C149.019 4.97969 150.427 4.48135 152.247 4.48135C154.111 4.48135 155.541 4.97969 156.537 5.97635C157.577 6.97302 158.097 8.42469 158.097 10.3314V31.7814H158.227L166.157 22.1614C167.241 20.8614 168.237 19.908 169.147 19.3014C170.101 18.6514 171.379 18.3264 172.982 18.3264C174.586 18.3264 175.821 18.7164 176.687 19.4964C177.554 20.2764 178.009 21.2514 178.052 22.4214C178.096 23.5914 177.619 24.7614 176.622 25.9314L168.042 36.0714V32.0414L177.662 44.1314C178.616 45.3447 179.006 46.5364 178.832 47.7064C178.659 48.833 178.096 49.743 177.142 50.4364C176.232 51.1297 175.062 51.4764 173.632 51.4764C171.899 51.4764 170.512 51.173 169.472 50.5664C168.432 49.9164 167.392 48.9197 166.352 47.5764L158.227 37.5664H158.097V45.6264C158.097 49.5264 156.147 51.4764 152.247 51.4764Z" fill="white"/>
<path d="M202.273 51.6064C198.373 51.6064 194.993 50.9347 192.133 49.5914C189.316 48.2047 187.149 46.2547 185.633 43.7414C184.116 41.228 183.358 38.2597 183.358 34.8364C183.358 31.543 184.073 28.6614 185.503 26.1914C186.976 23.678 188.969 21.728 191.483 20.3414C194.039 18.9114 196.943 18.1964 200.193 18.1964C202.576 18.1964 204.743 18.5864 206.693 19.3664C208.643 20.103 210.311 21.208 211.698 22.6814C213.084 24.1114 214.124 25.8447 214.818 27.8814C215.554 29.918 215.923 32.193 215.923 34.7064C215.923 35.573 215.684 36.223 215.208 36.6564C214.731 37.0464 213.973 37.2414 212.933 37.2414H193.043V31.7814H207.473L206.433 32.6264C206.433 31.023 206.216 29.723 205.783 28.7264C205.349 27.7297 204.699 26.9714 203.833 26.4514C203.009 25.9314 201.969 25.6714 200.713 25.6714C199.369 25.6714 198.199 25.9964 197.203 26.6464C196.249 27.253 195.513 28.163 194.993 29.3764C194.473 30.5897 194.213 32.1064 194.213 33.9264V34.5114C194.213 37.588 194.884 39.798 196.228 41.1414C197.614 42.4414 199.738 43.0914 202.598 43.0914C203.551 43.0914 204.634 42.983 205.848 42.7664C207.104 42.5064 208.296 42.1597 209.423 41.7264C210.549 41.293 211.524 41.228 212.348 41.5314C213.171 41.7914 213.799 42.268 214.233 42.9614C214.709 43.6114 214.969 44.3697 215.013 45.2364C215.056 46.0597 214.861 46.883 214.428 47.7064C213.994 48.4864 213.279 49.093 212.283 49.5264C210.766 50.2197 209.141 50.7397 207.408 51.0864C205.718 51.433 204.006 51.6064 202.273 51.6064Z" fill="white"/>
<path d="M227.703 51.4764C225.797 51.4764 224.323 50.978 223.283 49.9814C222.287 48.9847 221.788 47.533 221.788 45.6264V24.1114C221.788 22.248 222.265 20.818 223.218 19.8214C224.215 18.8247 225.623 18.3264 227.443 18.3264C229.263 18.3264 230.65 18.8247 231.603 19.8214C232.557 20.818 233.033 22.248 233.033 24.1114V26.7764H232.383C232.817 24.1764 233.922 22.118 235.698 20.6014C237.518 19.0847 239.772 18.283 242.458 18.1964C243.715 18.153 244.647 18.478 245.253 19.1714C245.903 19.8214 246.25 21.0564 246.293 22.8764C246.293 24.4364 245.968 25.6714 245.318 26.5814C244.668 27.4914 243.433 28.033 241.613 28.2064L240.118 28.3364C237.822 28.553 236.153 29.203 235.113 30.2864C234.073 31.3264 233.553 32.8864 233.553 34.9664V45.6264C233.553 47.533 233.055 48.9847 232.058 49.9814C231.062 50.978 229.61 51.4764 227.703 51.4764Z" fill="white"/>
<path d="M263.497 51.6064C261.59 51.6064 259.64 51.4547 257.647 51.1514C255.697 50.8914 253.92 50.393 252.317 49.6564C251.234 49.223 250.454 48.638 249.977 47.9014C249.544 47.1647 249.327 46.3847 249.327 45.5614C249.37 44.738 249.609 44.0014 250.042 43.3514C250.519 42.658 251.125 42.1814 251.862 41.9214C252.642 41.618 253.509 41.6397 254.462 41.9864C256.282 42.6364 257.907 43.113 259.337 43.4164C260.81 43.6764 262.219 43.8064 263.562 43.8064C265.165 43.8064 266.314 43.5897 267.007 43.1564C267.7 42.6797 268.047 42.073 268.047 41.3364C268.047 40.6864 267.809 40.188 267.332 39.8414C266.899 39.4947 266.27 39.2564 265.447 39.1264L258.232 37.9564C255.545 37.4797 253.465 36.5047 251.992 35.0314C250.519 33.5147 249.782 31.543 249.782 29.1164C249.782 26.863 250.41 24.9347 251.667 23.3314C252.967 21.6847 254.722 20.428 256.932 19.5614C259.185 18.6514 261.764 18.1964 264.667 18.1964C266.617 18.1964 268.394 18.348 269.997 18.6514C271.6 18.9114 273.16 19.4097 274.677 20.1464C275.63 20.5364 276.302 21.0997 276.692 21.8364C277.082 22.573 277.234 23.353 277.147 24.1764C277.06 24.9564 276.779 25.693 276.302 26.3864C275.869 27.0364 275.262 27.4914 274.482 27.7514C273.702 27.968 272.792 27.903 271.752 27.5564C270.322 26.993 269.044 26.5814 267.917 26.3214C266.834 26.0614 265.815 25.9314 264.862 25.9314C263.085 25.9314 261.829 26.1697 261.092 26.6464C260.355 27.123 259.987 27.7297 259.987 28.4664C259.987 29.0297 260.182 29.5064 260.572 29.8964C260.962 30.243 261.569 30.4814 262.392 30.6114L269.607 31.8464C272.38 32.2797 274.504 33.233 275.977 34.7064C277.494 36.1364 278.252 38.0864 278.252 40.5564C278.252 44.0664 276.909 46.7964 274.222 48.7464C271.535 50.653 267.96 51.6064 263.497 51.6064Z" fill="white"/>
</g>
<defs>
<filter id="filter0_d_568_8388" x="242.52" y="54.0002" width="29.9919" height="10.5959" filterUnits="userSpaceOnUse" color-interpolation-filters="sRGB">
<feFlood flood-opacity="0" result="BackgroundImageFix"/>
<feColorMatrix in="SourceAlpha" type="matrix" values="0 0 0 0 0 0 0 0 0 0 0 0 0 0 0 0 0 0 127 0" result="hardAlpha"/>
<feOffset/>
<feGaussianBlur stdDeviation="1"/>
<feComposite in2="hardAlpha" operator="out"/>
<feColorMatrix type="matrix" values="0 0 0 0 0 0 0 0 0 0 0 0 0 0 0 0 0 0 0.25 0"/>
<feBlend mode="normal" in2="BackgroundImageFix" result="effect1_dropShadow_568_8388"/>
<feBlend mode="normal" in="SourceGraphic" in2="effect1_dropShadow_568_8388" result="shape"/>
</filter>
<filter id="filter1_d_568_8388" x="-2" y="-4" width="286" height="66.783" filterUnits="userSpaceOnUse" color-interpolation-filters="sRGB">
<feFlood flood-opacity="0" result="BackgroundImageFix"/>
<feColorMatrix in="SourceAlpha" type="matrix" values="0 0 0 0 0 0 0 0 0 0 0 0 0 0 0 0 0 0 127 0" result="hardAlpha"/>
<feOffset/>
<feGaussianBlur stdDeviation="2"/>
<feComposite in2="hardAlpha" operator="out"/>
<feColorMatrix type="matrix" values="0 0 0 0 0 0 0 0 0 0 0 0 0 0 0 0 0 0 0.25 0"/>
<feBlend mode="normal" in2="BackgroundImageFix" result="effect1_dropShadow_568_8388"/>
<feBlend mode="normal" in="SourceGraphic" in2="effect1_dropShadow_568_8388" result="shape"/>
</filter>
</defs>
</svg>
