<svg width="25" height="25" viewBox="0 0 25 25" fill="none" xmlns="http://www.w3.org/2000/svg">
<path d="M13.5417 5.20834H21.875" stroke="white" stroke-width="1.5" stroke-linecap="round" stroke-linejoin="round"/>
<path d="M13.5417 9.375H18.75" stroke="white" stroke-width="1.5" stroke-linecap="round" stroke-linejoin="round"/>
<path d="M13.5417 15.625H21.875" stroke="white" stroke-width="1.5" stroke-linecap="round" stroke-linejoin="round"/>
<path d="M13.5417 19.7917H18.75" stroke="white" stroke-width="1.5" stroke-linecap="round" stroke-linejoin="round"/>
<path d="M8.33333 4.16666H4.16667C3.8904 4.16666 3.62545 4.2764 3.4301 4.47175C3.23475 4.6671 3.125 4.93206 3.125 5.20832V9.37499C3.125 9.65126 3.23475 9.91621 3.4301 10.1116C3.62545 10.3069 3.8904 10.4167 4.16667 10.4167H8.33333C8.6096 10.4167 8.87455 10.3069 9.0699 10.1116C9.26525 9.91621 9.375 9.65126 9.375 9.37499V5.20832C9.375 4.93206 9.26525 4.6671 9.0699 4.47175C8.87455 4.2764 8.6096 4.16666 8.33333 4.16666Z" stroke="white" stroke-width="1.5" stroke-linecap="round" stroke-linejoin="round"/>
<path d="M8.33333 14.5833H4.16667C3.8904 14.5833 3.62545 14.6931 3.4301 14.8884C3.23475 15.0838 3.125 15.3487 3.125 15.625V19.7917C3.125 20.0679 3.23475 20.3329 3.4301 20.5282C3.62545 20.7236 3.8904 20.8333 4.16667 20.8333H8.33333C8.6096 20.8333 8.87455 20.7236 9.0699 20.5282C9.26525 20.3329 9.375 20.0679 9.375 19.7917V15.625C9.375 15.3487 9.26525 15.0838 9.0699 14.8884C8.87455 14.6931 8.6096 14.5833 8.33333 14.5833Z" stroke="white" stroke-width="1.5" stroke-linecap="round" stroke-linejoin="round"/>
</svg>
