<svg width="25" height="25" viewBox="0 0 25 25" fill="none" xmlns="http://www.w3.org/2000/svg">
<path d="M14.2448 4.49687C13.801 2.66771 11.199 2.66771 10.7552 4.49687C10.6886 4.77155 10.5582 5.02662 10.3744 5.24132C10.1906 5.45602 9.95867 5.62429 9.69755 5.73241C9.43642 5.84054 9.15346 5.88547 8.87168 5.86354C8.58991 5.84162 8.3173 5.75346 8.07604 5.60625C6.46771 4.62708 4.62812 6.46771 5.60729 8.075C5.75448 8.31641 5.84259 8.58916 5.86445 8.87106C5.8863 9.15295 5.84129 9.43603 5.73307 9.69724C5.62485 9.95845 5.45648 10.1904 5.24167 10.3743C5.02685 10.5581 4.77167 10.6886 4.49687 10.7552C2.66771 11.199 2.66771 13.801 4.49687 14.2448C4.77129 14.3118 5.02606 14.4425 5.2405 14.6263C5.45494 14.8102 5.62301 15.042 5.73107 15.303C5.83914 15.564 5.88415 15.8468 5.86247 16.1284C5.84078 16.41 5.753 16.6826 5.60625 16.924C4.62708 18.5323 6.46771 20.3719 8.075 19.3927C8.31641 19.2455 8.58916 19.1574 8.87106 19.1356C9.15295 19.1137 9.43603 19.1587 9.69724 19.2669C9.95845 19.3752 10.1904 19.5435 10.3743 19.7583C10.5581 19.9731 10.6886 20.2283 10.7552 20.5031C11.199 22.3323 13.801 22.3323 14.2448 20.5031C14.3118 20.2287 14.4425 19.9739 14.6263 19.7595C14.8102 19.5451 15.042 19.377 15.303 19.2689C15.564 19.1609 15.8468 19.1158 16.1284 19.1375C16.41 19.1592 16.6826 19.247 16.924 19.3937C18.5323 20.3729 20.3719 18.5323 19.3927 16.925C19.2457 16.6835 19.1578 16.4108 19.1361 16.129C19.1144 15.8472 19.1594 15.5642 19.2676 15.303C19.3758 15.0419 19.5441 14.81 19.7587 14.6261C19.9734 14.4422 20.2285 14.3116 20.5031 14.2448C22.3323 13.801 22.3323 11.199 20.5031 10.7552C20.2286 10.6884 19.9737 10.5578 19.7591 10.374C19.5445 10.1902 19.3764 9.95832 19.2683 9.69727C19.1602 9.43622 19.1152 9.15334 19.137 8.87164C19.1588 8.58993 19.2468 8.31735 19.3937 8.07604C20.3729 6.46771 18.5323 4.62812 16.925 5.60729C16.6836 5.75448 16.4108 5.84259 16.1289 5.86445C15.847 5.8863 15.564 5.84129 15.3028 5.73307C15.0416 5.62485 14.8096 5.45648 14.6257 5.24167C14.4419 5.02685 14.3114 4.77167 14.2448 4.49687Z" stroke="white" stroke-width="1.5" stroke-linecap="round" stroke-linejoin="round"/>
<path d="M14.7094 14.7094C15.0128 14.4224 15.2556 14.0774 15.4235 13.6949C15.5914 13.3124 15.6808 12.9002 15.6867 12.4825C15.6925 12.0649 15.6145 11.6503 15.4573 11.2633C15.3002 10.8763 15.067 10.5247 14.7717 10.2294C14.4763 9.93402 14.1247 9.70088 13.7377 9.54372C13.3507 9.38656 12.9362 9.30858 12.5185 9.31439C12.1008 9.3202 11.6886 9.40967 11.3061 9.57753C10.9236 9.74539 10.5787 9.98823 10.2917 10.2917C9.72241 10.8811 9.40743 11.6704 9.41455 12.4898C9.42167 13.3092 9.75032 14.093 10.3297 14.6724C10.9091 15.2518 11.6929 15.5804 12.5123 15.5875C13.3316 15.5947 14.121 15.2797 14.7104 14.7104L14.7094 14.7094Z" stroke="white" stroke-width="1.5" stroke-linecap="round" stroke-linejoin="round"/>
</svg>
