<svg width="25" height="25" viewBox="0 0 25 25" fill="none" xmlns="http://www.w3.org/2000/svg">
<path d="M12.5 21.875C13.7311 21.875 14.9502 21.6325 16.0877 21.1614C17.2251 20.6902 18.2586 19.9997 19.1291 19.1291C19.9997 18.2586 20.6902 17.2251 21.1614 16.0877C21.6325 14.9502 21.875 13.7311 21.875 12.5C21.875 11.2689 21.6325 10.0498 21.1614 8.91234C20.6902 7.77492 19.9997 6.74142 19.1291 5.87087C18.2586 5.00032 17.2251 4.30977 16.0877 3.83863C14.9502 3.36749 13.7311 3.125 12.5 3.125C10.0136 3.125 7.62903 4.11272 5.87087 5.87087C4.11272 7.62903 3.125 10.0136 3.125 12.5C3.125 14.9864 4.11272 17.371 5.87087 19.1291C7.62903 20.8873 10.0136 21.875 12.5 21.875Z" stroke="white" stroke-width="1.5" stroke-linecap="round" stroke-linejoin="round"/>
<path d="M12.5 13.5417C13.3288 13.5417 14.1237 13.2124 14.7097 12.6264C15.2958 12.0403 15.625 11.2455 15.625 10.4167C15.625 9.58785 15.2958 8.793 14.7097 8.20695C14.1237 7.6209 13.3288 7.29166 12.5 7.29166C11.6712 7.29166 10.8763 7.6209 10.2903 8.20695C9.70424 8.793 9.375 9.58785 9.375 10.4167C9.375 11.2455 9.70424 12.0403 10.2903 12.6264C10.8763 13.2124 11.6712 13.5417 12.5 13.5417Z" stroke="white" stroke-width="1.5" stroke-linecap="round" stroke-linejoin="round"/>
<path d="M6.42499 19.6344C6.68281 18.7763 7.21037 18.0241 7.92941 17.4895C8.64845 16.955 9.52066 16.6664 10.4167 16.6667H14.5833C15.4805 16.6663 16.3537 16.9556 17.0733 17.4914C17.7929 18.0273 18.3203 18.781 18.5771 19.6406" stroke="white" stroke-width="1.5" stroke-linecap="round" stroke-linejoin="round"/>
</svg>
